<svg width="109" height="125" viewBox="0 0 109 125" fill="none" xmlns="http://www.w3.org/2000/svg">
<path fill-rule="evenodd" clip-rule="evenodd" d="M53.3087 16.0365C66.9831 17.2203 76.4234 28.5034 86.1349 38.2027C95.8559 47.9115 108.374 57.29 108.37 71.0289C108.366 84.766 95.9317 94.2257 86.1157 103.836C76.4573 113.292 66.8006 124.119 53.3087 124.936C39.2325 125.787 26.1901 118.09 16.2763 108.061C6.42425 98.0946 0.393164 85.0382 0.0219049 71.0289C-0.359644 56.6313 4.23759 42.3237 14.2601 31.9803C24.4309 21.484 38.7475 14.7759 53.3087 16.0365Z" fill="#2E3192"/>
<mask id="mask0_2523_515" style="mask-type:alpha" maskUnits="userSpaceOnUse" x="0" y="0" width="109" height="125">
<path fill-rule="evenodd" clip-rule="evenodd" d="M53.3087 0.184076C82.5833 0.184076 76.4234 28.3619 86.1349 38.0612C95.8559 47.77 108.374 57.1485 108.37 70.8874C108.366 84.6245 95.9317 94.0842 86.1157 103.694C76.4573 113.15 66.8006 123.978 53.3087 124.794C39.2325 125.646 26.1901 117.949 16.2763 107.92C6.42425 97.953 0.393164 84.8967 0.0219049 70.8874C-0.359644 56.4898 4.23759 42.1821 14.2601 31.8388C24.4309 21.3425 34.0561 -2.31845 53.3087 0.184076Z" fill="#C4C4C4"/>
</mask>
<g mask="url(#mask0_2523_515)">
</g>
<path d="M52.5091 34.9121C43.4367 34.9121 36.082 42.2668 36.082 51.3392C36.082 60.4116 43.4367 67.7663 52.5091 67.7663C61.5815 67.7663 68.9362 60.4116 68.9362 51.3392C68.9362 42.2668 61.5815 34.9121 52.5091 34.9121Z" fill="white"/>
<path d="M42.1341 72.9538C33.0617 72.9538 25.707 80.3084 25.707 89.3809C25.707 98.4533 33.0617 105.808 42.1341 105.808H62.8841C71.9565 105.808 79.3112 98.4533 79.3112 89.3809C79.3112 80.3084 71.9565 72.9538 62.8841 72.9538H42.1341Z" fill="white"/>
</svg>
