<svg width="257" height="583" viewBox="0 0 257 583" fill="none" xmlns="http://www.w3.org/2000/svg">
<g clip-path="url(#clip0_8366_2228)">
<rect width="257" height="583" rx="4" fill="#0D0F3A"/>
<g opacity="0.03">
<path d="M59.0504 230.014C59.0504 297.411 114.875 352.24 183.487 352.24C197.393 352.259 211.203 349.981 224.339 345.5V364.07C203.08 370.302 180.633 371.57 158.787 367.773C136.942 363.975 116.301 355.217 98.5114 342.197C80.7218 329.177 66.2748 312.254 56.3223 292.779C46.3697 273.304 41.1869 251.814 41.1869 230.023C41.1869 208.231 46.3697 186.742 56.3223 167.266C66.2748 147.791 80.7218 130.869 98.5114 117.848C116.301 104.828 136.942 96.0702 158.787 92.2726C180.633 88.4749 203.08 89.7427 224.339 95.9748V114.545C211.204 110.058 197.394 107.774 183.487 107.787C114.875 107.787 59.0504 162.616 59.0504 230.014Z" fill="#F1F2F2"/>
<path d="M14.7457 230.015C14.7457 321.409 90.4451 395.76 183.488 395.76C197.257 395.767 210.975 394.125 224.339 390.872V417.827C210.909 420.625 197.217 422.034 183.488 422.03C131.641 422.03 81.9181 401.8 45.257 365.79C8.59597 329.781 -12 280.941 -12 230.015C-12 179.09 8.59597 130.25 45.257 94.2399C81.9181 58.2301 131.641 38 183.488 38C197.217 37.9967 210.909 39.4055 224.339 42.2033V69.1578C210.975 65.9049 197.257 64.2637 183.488 64.2706C90.4451 64.2706 14.7457 138.621 14.7457 230.015Z" fill="#F1F2F2"/>
</g>
</g>
<defs>
<clipPath id="clip0_8366_2228">
<rect width="257" height="583" rx="4" fill="white"/>
</clipPath>
</defs>
</svg>
