<svg width="17" height="18" viewBox="0 0 17 18" fill="none" xmlns="http://www.w3.org/2000/svg">
<circle cx="8.67785" cy="9.17822" r="8.30127" fill="#2E3192"/>
<path d="M7.14666 11.9907L7.14751 11.9897L4.84048 9.40378C4.7626 9.31353 4.71946 9.19259 4.72035 9.06703C4.72124 8.94147 4.7661 8.82132 4.84526 8.73247C4.92441 8.64362 5.03154 8.59317 5.14355 8.59199C5.25557 8.59081 5.36352 8.639 5.44415 8.72617L7.75119 11.3126L12.2828 6.23409C12.3222 6.18835 12.3694 6.15187 12.4215 6.12677C12.4736 6.10167 12.5297 6.08846 12.5864 6.08791C12.6431 6.08736 12.6994 6.09947 12.7519 6.12355C12.8044 6.14763 12.8521 6.18319 12.8922 6.22815C12.9323 6.27311 12.964 6.32658 12.9855 6.38543C13.007 6.44429 13.0178 6.50735 13.0173 6.57093C13.0168 6.63452 13.005 6.69735 12.9826 6.75578C12.9603 6.8142 12.9277 6.86705 12.8869 6.91122L8.05281 12.3292C7.97269 12.419 7.86405 12.4695 7.75076 12.4695C7.63747 12.4695 7.52883 12.419 7.44871 12.3292L7.14666 11.9907Z" fill="white"/>
</svg>
