<svg width="664" height="162" viewBox="0 0 664 162" fill="none" xmlns="http://www.w3.org/2000/svg">
<g opacity="0.9">
<path d="M212.018 85.6729C222.276 142.464 429.538 156.625 448.039 109.642C477.194 35.599 292.225 5.05016 260.926 24.8334C259.767 25.5661 259.574 27.318 260.46 27.1139C337.967 9.2637 462.915 56.0988 440.87 108.176C419.795 146.972 207.067 134.312 217.878 77.1736C224.996 39.5524 324.751 23.144 389.385 48.0941C391.482 48.038 390.322 45.6806 388.216 44.8003C318.896 18.1032 206.417 32.345 212.018 85.6729Z" fill="#2E3192"/>
</g>
<path d="M235.617 87.2C235.617 85.2773 236.046 83.56 236.905 82.048C237.782 80.5173 238.968 79.332 240.461 78.492C241.973 77.6333 243.662 77.204 245.529 77.204C247.713 77.204 249.626 77.764 251.269 78.884C252.912 80.004 254.06 81.5533 254.713 83.532H250.205C249.757 82.5987 249.122 81.8987 248.301 81.432C247.498 80.9653 246.565 80.732 245.501 80.732C244.362 80.732 243.345 81.0027 242.449 81.544C241.572 82.0667 240.881 82.8133 240.377 83.784C239.892 84.7547 239.649 85.8933 239.649 87.2C239.649 88.488 239.892 89.6267 240.377 90.616C240.881 91.5867 241.572 92.3427 242.449 92.884C243.345 93.4067 244.362 93.668 245.501 93.668C246.565 93.668 247.498 93.4347 248.301 92.968C249.122 92.4827 249.757 91.7733 250.205 90.84H254.713C254.06 92.8373 252.912 94.396 251.269 95.516C249.645 96.6173 247.732 97.168 245.529 97.168C243.662 97.168 241.973 96.748 240.461 95.908C238.968 95.0493 237.782 93.864 236.905 92.352C236.046 90.84 235.617 89.1227 235.617 87.2ZM265.229 97.252C263.736 97.252 262.392 96.9253 261.197 96.272C260.003 95.6 259.06 94.6573 258.369 93.444C257.697 92.2307 257.361 90.8307 257.361 89.244C257.361 87.6573 257.707 86.2573 258.397 85.044C259.107 83.8307 260.068 82.8973 261.281 82.244C262.495 81.572 263.848 81.236 265.341 81.236C266.835 81.236 268.188 81.572 269.401 82.244C270.615 82.8973 271.567 83.8307 272.257 85.044C272.967 86.2573 273.321 87.6573 273.321 89.244C273.321 90.8307 272.957 92.2307 272.229 93.444C271.52 94.6573 270.549 95.6 269.317 96.272C268.104 96.9253 266.741 97.252 265.229 97.252ZM265.229 93.836C265.939 93.836 266.601 93.668 267.217 93.332C267.852 92.9773 268.356 92.4547 268.729 91.764C269.103 91.0733 269.289 90.2333 269.289 89.244C269.289 87.7693 268.897 86.64 268.113 85.856C267.348 85.0533 266.405 84.652 265.285 84.652C264.165 84.652 263.223 85.0533 262.457 85.856C261.711 86.64 261.337 87.7693 261.337 89.244C261.337 90.7187 261.701 91.8573 262.429 92.66C263.176 93.444 264.109 93.836 265.229 93.836ZM295.741 81.264C297.645 81.264 299.175 81.852 300.333 83.028C301.509 84.1853 302.097 85.8093 302.097 87.9V97H298.177V88.432C298.177 87.2187 297.869 86.2947 297.253 85.66C296.637 85.0067 295.797 84.68 294.733 84.68C293.669 84.68 292.819 85.0067 292.185 85.66C291.569 86.2947 291.261 87.2187 291.261 88.432V97H287.341V88.432C287.341 87.2187 287.033 86.2947 286.417 85.66C285.801 85.0067 284.961 84.68 283.897 84.68C282.814 84.68 281.955 85.0067 281.321 85.66C280.705 86.2947 280.397 87.2187 280.397 88.432V97H276.477V81.488H280.397V83.364C280.901 82.7107 281.545 82.1973 282.329 81.824C283.131 81.4507 284.009 81.264 284.961 81.264C286.174 81.264 287.257 81.5253 288.209 82.048C289.161 82.552 289.898 83.28 290.421 84.232C290.925 83.336 291.653 82.6173 292.605 82.076C293.575 81.5347 294.621 81.264 295.741 81.264ZM308.085 79.64C307.394 79.64 306.815 79.4253 306.349 78.996C305.901 78.548 305.677 77.9973 305.677 77.344C305.677 76.6907 305.901 76.1493 306.349 75.72C306.815 75.272 307.394 75.048 308.085 75.048C308.775 75.048 309.345 75.272 309.793 75.72C310.259 76.1493 310.493 76.6907 310.493 77.344C310.493 77.9973 310.259 78.548 309.793 78.996C309.345 79.4253 308.775 79.64 308.085 79.64ZM310.017 81.488V97H306.097V81.488H310.017ZM322.766 81.264C324.614 81.264 326.107 81.852 327.246 83.028C328.384 84.1853 328.954 85.8093 328.954 87.9V97H325.034V88.432C325.034 87.2 324.726 86.2573 324.11 85.604C323.494 84.932 322.654 84.596 321.59 84.596C320.507 84.596 319.648 84.932 319.014 85.604C318.398 86.2573 318.09 87.2 318.09 88.432V97H314.17V81.488H318.09V83.42C318.612 82.748 319.275 82.2253 320.078 81.852C320.899 81.46 321.795 81.264 322.766 81.264ZM339.037 81.236C340.195 81.236 341.212 81.4693 342.089 81.936C342.967 82.384 343.657 82.972 344.161 83.7V81.488H348.109V97.112C348.109 98.5493 347.82 99.828 347.241 100.948C346.663 102.087 345.795 102.983 344.637 103.636C343.48 104.308 342.08 104.644 340.437 104.644C338.235 104.644 336.424 104.131 335.005 103.104C333.605 102.077 332.812 100.677 332.625 98.904H336.517C336.723 99.6133 337.161 100.173 337.833 100.584C338.524 101.013 339.355 101.228 340.325 101.228C341.464 101.228 342.388 100.883 343.097 100.192C343.807 99.52 344.161 98.4933 344.161 97.112V94.704C343.657 95.432 342.957 96.0387 342.061 96.524C341.184 97.0093 340.176 97.252 339.037 97.252C337.731 97.252 336.536 96.916 335.453 96.244C334.371 95.572 333.512 94.6293 332.877 93.416C332.261 92.184 331.953 90.7747 331.953 89.188C331.953 87.62 332.261 86.2293 332.877 85.016C333.512 83.8027 334.361 82.8693 335.425 82.216C336.508 81.5627 337.712 81.236 339.037 81.236ZM344.161 89.244C344.161 88.292 343.975 87.48 343.601 86.808C343.228 86.1173 342.724 85.5947 342.089 85.24C341.455 84.8667 340.773 84.68 340.045 84.68C339.317 84.68 338.645 84.8573 338.029 85.212C337.413 85.5667 336.909 86.0893 336.517 86.78C336.144 87.452 335.957 88.2547 335.957 89.188C335.957 90.1213 336.144 90.9427 336.517 91.652C336.909 92.3427 337.413 92.8747 338.029 93.248C338.664 93.6213 339.336 93.808 340.045 93.808C340.773 93.808 341.455 93.6307 342.089 93.276C342.724 92.9027 343.228 92.38 343.601 91.708C343.975 91.0173 344.161 90.196 344.161 89.244ZM365.918 97.196C364.555 97.196 363.323 96.9627 362.222 96.496C361.139 96.0293 360.28 95.3573 359.646 94.48C359.011 93.6027 358.684 92.5667 358.666 91.372H362.866C362.922 92.1747 363.202 92.8093 363.706 93.276C364.228 93.7427 364.938 93.976 365.834 93.976C366.748 93.976 367.467 93.7613 367.99 93.332C368.512 92.884 368.774 92.3053 368.774 91.596C368.774 91.0173 368.596 90.5413 368.242 90.168C367.887 89.7947 367.439 89.5053 366.898 89.3C366.375 89.076 365.647 88.8333 364.714 88.572C363.444 88.1987 362.408 87.8347 361.606 87.48C360.822 87.1067 360.14 86.556 359.562 85.828C359.002 85.0813 358.722 84.092 358.722 82.86C358.722 81.7027 359.011 80.6947 359.59 79.836C360.168 78.9773 360.98 78.324 362.026 77.876C363.071 77.4093 364.266 77.176 365.61 77.176C367.626 77.176 369.259 77.6707 370.51 78.66C371.779 79.6307 372.479 80.9933 372.61 82.748H368.298C368.26 82.076 367.971 81.5253 367.43 81.096C366.907 80.648 366.207 80.424 365.33 80.424C364.564 80.424 363.948 80.62 363.482 81.012C363.034 81.404 362.81 81.9733 362.81 82.72C362.81 83.2427 362.978 83.6813 363.314 84.036C363.668 84.372 364.098 84.652 364.602 84.876C365.124 85.0813 365.852 85.324 366.786 85.604C368.055 85.9773 369.091 86.3507 369.894 86.724C370.696 87.0973 371.387 87.6573 371.966 88.404C372.544 89.1507 372.834 90.1307 372.834 91.344C372.834 92.3893 372.563 93.36 372.022 94.256C371.48 95.152 370.687 95.8707 369.642 96.412C368.596 96.9347 367.355 97.196 365.918 97.196ZM383.4 97.252C381.907 97.252 380.563 96.9253 379.368 96.272C378.174 95.6 377.231 94.6573 376.54 93.444C375.868 92.2307 375.532 90.8307 375.532 89.244C375.532 87.6573 375.878 86.2573 376.568 85.044C377.278 83.8307 378.239 82.8973 379.452 82.244C380.666 81.572 382.019 81.236 383.512 81.236C385.006 81.236 386.359 81.572 387.572 82.244C388.786 82.8973 389.738 83.8307 390.428 85.044C391.138 86.2573 391.492 87.6573 391.492 89.244C391.492 90.8307 391.128 92.2307 390.4 93.444C389.691 94.6573 388.72 95.6 387.488 96.272C386.275 96.9253 384.912 97.252 383.4 97.252ZM383.4 93.836C384.11 93.836 384.772 93.668 385.388 93.332C386.023 92.9773 386.527 92.4547 386.9 91.764C387.274 91.0733 387.46 90.2333 387.46 89.244C387.46 87.7693 387.068 86.64 386.284 85.856C385.519 85.0533 384.576 84.652 383.456 84.652C382.336 84.652 381.394 85.0533 380.628 85.856C379.882 86.64 379.508 87.7693 379.508 89.244C379.508 90.7187 379.872 91.8573 380.6 92.66C381.347 93.444 382.28 93.836 383.4 93.836ZM401.536 97.252C400.042 97.252 398.698 96.9253 397.504 96.272C396.309 95.6 395.366 94.6573 394.676 93.444C394.004 92.2307 393.668 90.8307 393.668 89.244C393.668 87.6573 394.013 86.2573 394.704 85.044C395.413 83.8307 396.374 82.8973 397.588 82.244C398.801 81.572 400.154 81.236 401.648 81.236C403.141 81.236 404.494 81.572 405.708 82.244C406.921 82.8973 407.873 83.8307 408.564 85.044C409.273 86.2573 409.628 87.6573 409.628 89.244C409.628 90.8307 409.264 92.2307 408.536 93.444C407.826 94.6573 406.856 95.6 405.624 96.272C404.41 96.9253 403.048 97.252 401.536 97.252ZM401.536 93.836C402.245 93.836 402.908 93.668 403.524 93.332C404.158 92.9773 404.662 92.4547 405.036 91.764C405.409 91.0733 405.596 90.2333 405.596 89.244C405.596 87.7693 405.204 86.64 404.42 85.856C403.654 85.0533 402.712 84.652 401.592 84.652C400.472 84.652 399.529 85.0533 398.764 85.856C398.017 86.64 397.644 87.7693 397.644 89.244C397.644 90.7187 398.008 91.8573 398.736 92.66C399.482 93.444 400.416 93.836 401.536 93.836ZM421.379 81.264C423.227 81.264 424.721 81.852 425.859 83.028C426.998 84.1853 427.567 85.8093 427.567 87.9V97H423.647V88.432C423.647 87.2 423.339 86.2573 422.723 85.604C422.107 84.932 421.267 84.596 420.203 84.596C419.121 84.596 418.262 84.932 417.627 85.604C417.011 86.2573 416.703 87.2 416.703 88.432V97H412.783V81.488H416.703V83.42C417.226 82.748 417.889 82.2253 418.691 81.852C419.513 81.46 420.409 81.264 421.379 81.264Z" fill="#2E3192"/>
</svg>
