<svg width="324" height="285" viewBox="0 0 324 285" fill="none" xmlns="http://www.w3.org/2000/svg">
<path d="M161.766 224.418C163.251 224.418 164.455 223.214 164.455 221.729C164.455 220.245 163.251 219.041 161.766 219.041C160.282 219.041 159.078 220.245 159.078 221.729C159.078 223.214 160.282 224.418 161.766 224.418Z" fill="#CFCFCF"/>
<path d="M83.668 22.0352V33.8306" stroke="#BABABA" stroke-width="2.74314" stroke-linecap="round" stroke-linejoin="round"/>
<path d="M77.7427 27.9277H89.5656" stroke="#BABABA" stroke-width="2.74314" stroke-linecap="round" stroke-linejoin="round"/>
<path d="M217.946 96.4258C194.985 96.4258 171.614 95.4931 149.751 89.4034C128.3 83.4508 108.604 71.9022 91.048 58.5431C79.5543 49.8473 69.1029 42.9072 54.1803 43.9496C39.5814 44.7396 25.6209 50.1911 14.3499 59.5032C-4.63259 76.1266 -1.77973 106.932 5.81876 128.493C17.2302 161.054 51.9583 183.74 81.4745 198.416C115.572 215.45 153.043 225.353 190.596 231.032C223.514 236.051 265.813 239.672 294.342 218.194C320.539 198.416 327.726 153.318 321.307 122.87C319.75 113.874 314.96 105.758 307.838 100.047C289.432 86.5779 261.973 95.5754 241.29 96.0143C233.609 96.1789 225.791 96.3709 217.946 96.4258Z" fill="#F2F2F2"/>
<path d="M180.803 5.95858C182.288 5.95858 183.491 4.755 183.491 3.2703C183.491 1.78561 182.288 0.582031 180.803 0.582031C179.318 0.582031 178.115 1.78561 178.115 3.2703C178.115 4.755 179.318 5.95858 180.803 5.95858Z" fill="#CFCFCF"/>
<path d="M41.1226 215.287V227.083" stroke="#BABABA" stroke-width="2.74314" stroke-linecap="round" stroke-linejoin="round"/>
<path d="M35.2236 221.186H47.0191" stroke="#BABABA" stroke-width="2.74314" stroke-linecap="round" stroke-linejoin="round"/>
<path d="M162.863 284.411C218.479 284.411 263.564 281.599 263.564 278.129C263.564 274.66 218.479 271.848 162.863 271.848C107.248 271.848 62.1626 274.66 62.1626 278.129C62.1626 281.599 107.248 284.411 162.863 284.411Z" fill="#F2F2F2"/>
<path d="M243.812 210.842H69.8701C68.706 210.841 67.556 210.587 66.4996 210.098C65.4432 209.609 64.5057 208.897 63.7518 208.01C62.9979 207.123 62.4456 206.082 62.1332 204.961C61.8208 203.84 61.7557 202.664 61.9425 201.515L84.1893 66.6074C84.4899 64.7298 85.4508 63.0212 86.8991 61.7891C88.3475 60.5571 90.188 59.8824 92.0895 59.8867H266.032C267.195 59.8868 268.344 60.1403 269.4 60.6295C270.455 61.1187 271.391 61.8319 272.143 62.7195C272.895 63.6071 273.444 64.6478 273.753 65.7693C274.062 66.8907 274.123 68.066 273.932 69.2134L251.795 204.121C251.487 206.01 250.513 207.727 249.048 208.959C247.584 210.192 245.727 210.86 243.812 210.842Z" fill="#D2D2D2"/>
<path d="M245.956 56.3579L142.707 10.2592C139.664 8.90039 136.095 10.266 134.736 13.3094L102.013 86.6002C100.654 89.6436 102.02 93.2123 105.063 94.5711L208.312 140.67C211.355 142.029 214.924 140.663 216.283 137.62L249.006 64.3289C250.365 61.2855 248.999 57.7168 245.956 56.3579Z" fill="white" stroke="#BABABA" stroke-width="2.74314" stroke-linecap="round" stroke-linejoin="round"/>
<path d="M157.843 70.5572C160.56 66.7439 164.513 63.9874 169.031 62.7548C173.548 61.5223 178.353 61.8896 182.631 63.7944C186.909 65.6992 190.396 69.0244 192.503 73.2066C194.609 77.3887 195.205 82.1705 194.189 86.7417" stroke="#BABABA" stroke-width="1.86533" stroke-linecap="round" stroke-linejoin="round"/>
<path d="M207.22 66.4165C208.78 66.4165 210.045 65.1515 210.045 63.5911C210.045 62.0306 208.78 60.7656 207.22 60.7656C205.66 60.7656 204.395 62.0306 204.395 63.5911C204.395 65.1515 205.66 66.4165 207.22 66.4165Z" fill="#BABABA"/>
<path d="M166.291 48.145C167.852 48.145 169.117 46.88 169.117 45.3196C169.117 43.7591 167.852 42.4941 166.291 42.4941C164.731 42.4941 163.466 43.7591 163.466 45.3196C163.466 46.88 164.731 48.145 166.291 48.145Z" fill="#BABABA"/>
<path d="M243.044 210.787H68.2515C66.1246 210.78 64.0873 209.93 62.5859 208.424C61.0846 206.917 60.2415 204.877 60.2416 202.75V79.5009C60.216 78.4317 60.4041 77.3681 60.7948 76.3725C61.1856 75.3769 61.7711 74.4693 62.5171 73.7029C63.2631 72.9364 64.1545 72.3266 65.1392 71.9091C66.1239 71.4916 67.182 71.2748 68.2515 71.2715H131.92C133.397 71.2769 134.844 71.6894 136.103 72.4637C137.361 73.238 138.381 74.3441 139.052 75.6605L148.132 93.436C148.8 94.7544 149.82 95.8622 151.078 96.6368C152.337 97.4115 153.786 97.8227 155.264 97.825H243.044C245.169 97.825 247.206 98.6689 248.708 100.171C250.21 101.673 251.054 103.711 251.054 105.835V202.75C251.054 204.877 250.211 206.917 248.71 208.424C247.208 209.93 245.171 210.78 243.044 210.787Z" fill="white" stroke="#BABABA" stroke-width="2.74314" stroke-linecap="round" stroke-linejoin="round"/>
<path d="M216.134 102.023C206.037 102.018 196.164 105.007 187.765 110.614C179.366 116.22 172.819 124.191 168.951 133.518C165.083 142.846 164.068 153.111 166.035 163.016C168.001 172.92 172.861 182.019 180 189.161C187.138 196.303 196.234 201.168 206.138 203.14C216.041 205.112 226.307 204.103 235.636 200.24C244.966 196.377 252.941 189.833 258.551 181.438C264.162 173.042 267.157 163.171 267.157 153.073C267.157 139.539 261.782 126.558 252.214 116.985C242.647 107.412 229.669 102.031 216.134 102.023Z" fill="white" stroke="#BABABA" stroke-width="2.74314" stroke-linecap="round" stroke-linejoin="round"/>
<path d="M252.455 190.105L266.061 203.711" stroke="#BABABA" stroke-width="2.74314" stroke-linecap="round" stroke-linejoin="round"/>
<path d="M264.522 197.101L260.295 201.522C258.4 203.504 258.471 206.647 260.453 208.542L297.136 243.61C299.118 245.504 302.261 245.434 304.156 243.451L308.383 239.03C310.278 237.048 310.207 233.905 308.225 232.01L271.542 196.942C269.559 195.048 266.417 195.118 264.522 197.101Z" fill="#D2D2D2"/>
<path d="M291.681 3.27148V15.0944" stroke="#BABABA" stroke-width="2.74314" stroke-linecap="round" stroke-linejoin="round"/>
<path d="M285.755 9.19141H297.578" stroke="#BABABA" stroke-width="2.74314" stroke-linecap="round" stroke-linejoin="round"/>
</svg>
