<svg width="80" height="80" viewBox="0 0 80 80" fill="none" xmlns="http://www.w3.org/2000/svg">
<path d="M40 50.0003C25.2667 50.0003 13.3334 55.967 13.3334 63.3337V70.0003H66.6667V63.3337C66.6667 55.967 54.7334 50.0003 40 50.0003ZM26.6667 30.0003C26.6667 33.5365 28.0715 36.9279 30.5719 39.4284C33.0724 41.9289 36.4638 43.3337 40 43.3337C43.5363 43.3337 46.9276 41.9289 49.4281 39.4284C51.9286 36.9279 53.3334 33.5365 53.3334 30.0003M38.3334 6.66699C37.3334 6.66699 36.6667 7.36699 36.6667 8.33366V18.3337H33.3334V10.0003C33.3334 10.0003 25.8334 12.867 25.8334 22.5003C25.8334 22.5003 23.3334 22.967 23.3334 26.667H56.6667C56.5 22.967 54.1667 22.5003 54.1667 22.5003C54.1667 12.867 46.6667 10.0003 46.6667 10.0003V18.3337H43.3334V8.33366C43.3334 7.36699 42.7 6.66699 41.6667 6.66699H38.3334Z" fill="#2E3192"/>
</svg>
