<svg width="80" height="80" viewBox="0 0 80 80" fill="none" xmlns="http://www.w3.org/2000/svg">
<path d="M25 55.0003L48.3333 48.3337L55 25.0003L31.6667 31.667L25 55.0003ZM40 45.0003C38.6111 45.0003 37.4311 44.5148 36.46 43.5437C35.4889 42.5725 35.0022 41.3914 35 40.0003C34.9978 38.6092 35.4844 37.4292 36.46 36.4603C37.4355 35.4914 38.6155 35.0048 40 35.0003C41.3844 34.9959 42.5655 35.4825 43.5433 36.4603C44.5211 37.4381 45.0067 38.6181 45 40.0003C44.9933 41.3825 44.5078 42.5637 43.5433 43.5437C42.5789 44.5237 41.3978 45.0092 40 45.0003ZM40 73.3337C35.3889 73.3337 31.0556 72.4581 27 70.707C22.9444 68.9559 19.4167 66.5814 16.4167 63.5837C13.4167 60.5859 11.0422 57.0581 9.29333 53.0003C7.54444 48.9425 6.66888 44.6092 6.66666 40.0003C6.66444 35.3914 7.53999 31.0581 9.29333 27.0003C11.0467 22.9426 13.4211 19.4148 16.4167 16.417C19.4122 13.4192 22.94 11.0448 27 9.29366C31.06 7.54255 35.3933 6.66699 40 6.66699C44.6067 6.66699 48.94 7.54255 53 9.29366C57.06 11.0448 60.5878 13.4192 63.5833 16.417C66.5789 19.4148 68.9544 22.9426 70.71 27.0003C72.4655 31.0581 73.34 35.3914 73.3333 40.0003C73.3267 44.6092 72.4511 48.9425 70.7067 53.0003C68.9622 57.0581 66.5878 60.5859 63.5833 63.5837C60.5789 66.5814 57.0511 68.957 53 70.7103C48.9489 72.4637 44.6155 73.3381 40 73.3337Z" fill="#2E3192"/>
</svg>
