<svg width="81" height="80" viewBox="0 0 81 80" fill="none" xmlns="http://www.w3.org/2000/svg">
<rect x="0.5" width="80" height="80" rx="40" fill="#EDF4FF"/>
<path d="M23.125 40H25M40 23.125V25M55 40H56.875M28 28L29.3125 29.3125M52 28L50.6875 29.3125M35.6875 49.375H44.3125M34.375 47.5C32.8009 46.3194 31.6381 44.6735 31.0514 42.7953C30.4647 40.9172 30.4839 38.902 31.1061 37.0354C31.7283 35.1687 32.9221 33.5451 34.5183 32.3946C36.1146 31.2441 38.0324 30.625 40 30.625C41.9676 30.625 43.8854 31.2441 45.4817 32.3946C47.0779 33.5451 48.2717 35.1687 48.8939 37.0354C49.5161 38.902 49.5353 40.9172 48.9486 42.7953C48.3619 44.6735 47.1991 46.3194 45.625 47.5C44.8929 48.2247 44.3417 49.1115 44.016 50.0887C43.6903 51.0659 43.5991 52.106 43.75 53.125C43.75 54.1196 43.3549 55.0734 42.6516 55.7766C41.9484 56.4799 40.9946 56.875 40 56.875C39.0054 56.875 38.0516 56.4799 37.3484 55.7766C36.6451 55.0734 36.25 54.1196 36.25 53.125C36.4009 52.106 36.3097 51.0659 35.984 50.0887C35.6583 49.1115 35.1071 48.2247 34.375 47.5Z" stroke="#272A7C" stroke-width="3.75" stroke-linecap="round" stroke-linejoin="round"/>
</svg>
