<svg width="70" height="70" viewBox="0 0 70 70" fill="none" xmlns="http://www.w3.org/2000/svg">
<path d="M11.6668 58.3346C10.0627 58.3346 8.68989 57.7639 7.5485 56.6226C6.40711 55.4812 5.83544 54.1074 5.8335 52.5013V17.5013C5.8335 15.8971 6.40516 14.5244 7.5485 13.383C8.69183 12.2416 10.0646 11.6699 11.6668 11.668H58.3335C59.9377 11.668 61.3114 12.2396 62.4547 13.383C63.5981 14.5263 64.1688 15.8991 64.1668 17.5013V52.5013C64.1668 54.1055 63.5961 55.4792 62.4547 56.6226C61.3134 57.7659 59.9396 58.3366 58.3335 58.3346H11.6668ZM11.6668 23.3346H58.3335V17.5013H11.6668V23.3346ZM31.9377 48.2721L48.4168 31.793L44.1877 27.5638L31.9377 39.8138L25.8127 33.6888L21.5835 37.918L31.9377 48.2721Z" fill="#2E3192"/>
</svg>
