<svg width="80" height="80" viewBox="0 0 80 80" fill="none" xmlns="http://www.w3.org/2000/svg">
<rect width="80" height="80" rx="40" fill="#EDF4FF"/>
<path d="M39.9875 19.7714C40.651 19.7714 41.3043 19.8144 41.9121 19.9157C42.5108 19.9929 43.1015 20.1234 43.6771 20.3057C44.251 20.4779 44.82 20.6999 45.3838 20.9717C45.9333 21.2325 46.498 21.5516 47.0627 21.8985C48.0174 22.5063 48.9569 22.9975 49.9141 23.39C51.798 24.1458 53.7909 24.5946 55.8169 24.7195C56.8416 24.7955 57.9027 24.8343 59 24.836V34.9652C59 36.888 58.7544 38.7164 58.2631 40.4501C57.7911 42.1625 57.1206 43.8138 56.2651 45.3704C55.4134 46.9249 54.4054 48.3885 53.2567 49.7386C52.0913 51.12 50.8286 52.4165 49.4786 53.6181C48.1094 54.8218 46.6694 55.9422 45.1661 56.9734C43.6602 58.0201 42.1459 58.9849 40.6231 59.8678L40.0154 60.2299L39.4076 59.8678C37.8456 58.9637 36.3199 57.9982 34.8343 56.9734C33.3229 55.9533 31.8821 54.8323 30.5218 53.6181C29.1726 52.4164 27.9108 51.1199 26.7461 49.7386C25.6014 48.3822 24.5889 46.9195 23.7225 45.3704C22.8825 43.8065 22.2127 42.157 21.7246 40.4501C21.2335 38.6635 20.9898 36.818 21.0003 34.9652V24.836C22.0977 24.8343 23.1595 24.7955 24.186 24.7195C25.1982 24.6507 26.2038 24.5059 27.1943 24.2865C28.1642 24.0687 29.1341 23.78 30.0887 23.39C31.0791 22.9897 32.0289 22.4953 32.9249 21.9137C34.0391 21.1895 35.1685 20.6552 36.2828 20.3032C37.4828 19.9357 38.7325 19.7563 39.9875 19.7714ZM56.4525 27.3252C54.5357 27.2314 52.6368 26.911 50.7954 26.3706C48.9643 25.8229 47.22 25.019 45.6143 23.9826C44.7811 23.4372 43.8771 23.0086 42.9275 22.7089C41.9783 22.4226 40.9915 22.2809 40.0002 22.2885C39.0014 22.2824 38.0073 22.4241 37.05 22.7089C36.0993 22.9996 35.1966 23.4288 34.3709 23.9826C32.7618 25.0236 31.0131 25.831 29.1771 26.3807C27.3826 26.9023 25.5011 27.2214 23.5326 27.3379V34.9778C23.5326 36.6542 23.7504 38.2648 24.186 39.8095C24.6301 41.3431 25.2415 42.8233 26.0092 44.2233C26.7864 45.6377 27.7026 46.9712 28.7441 48.204C29.8001 49.4474 30.9269 50.6047 32.1424 51.7037C33.3579 52.8027 34.6317 53.8207 35.9637 54.7576C37.3092 55.6963 38.6547 56.5547 40.0002 57.333C41.3776 56.5325 42.7202 55.6732 44.024 54.7576C45.3664 53.8232 46.647 52.8031 47.8579 51.7037C49.0734 50.6047 50.2028 49.4474 51.2588 48.204C52.3003 46.9712 53.2164 45.6377 53.9936 44.2233C54.7575 42.8248 55.3598 41.344 55.789 39.8095C56.2383 38.2386 56.4617 36.6117 56.4525 34.9778V27.3252Z" fill="#272A7C"/>
<path fill-rule="evenodd" clip-rule="evenodd" d="M49.4226 31.696L48.3084 30.7388L47.2803 30.8274L36.2395 43.8637L32.479 38.4952L31.4661 38.323L30.2936 39.1612L30.1189 40.1741L34.9531 47.0772L35.5026 47.381L36.6598 47.4519L37.2524 47.1936L49.496 32.7216L49.4226 31.696Z" fill="#272A7C"/>
</svg>
