<svg width="70" height="70" viewBox="0 0 70 70" fill="none" xmlns="http://www.w3.org/2000/svg">
<path d="M34.9998 43.7487C22.1082 43.7487 11.6665 48.9695 11.6665 55.4154V61.2487H58.3332V55.4154C58.3332 48.9695 47.8915 43.7487 34.9998 43.7487ZM23.3332 26.2487C23.3332 29.3429 24.5623 32.3104 26.7503 34.4983C28.9382 36.6862 31.9056 37.9154 34.9998 37.9154C38.094 37.9154 41.0615 36.6862 43.2494 34.4983C45.4373 32.3104 46.6665 29.3429 46.6665 26.2487M33.5415 5.83203C32.6665 5.83203 32.0832 6.44453 32.0832 7.29036V16.0404H29.1665V8.7487C29.1665 8.7487 22.604 11.257 22.604 19.6862C22.604 19.6862 20.4165 20.0945 20.4165 23.332H49.5832C49.4373 20.0945 47.3957 19.6862 47.3957 19.6862C47.3957 11.257 40.8332 8.7487 40.8332 8.7487V16.0404H37.9165V7.29036C37.9165 6.44453 37.3623 5.83203 36.4582 5.83203H33.5415Z" fill="#2E3192"/>
</svg>
