<svg width="70" height="70" viewBox="0 0 70 70" fill="none" xmlns="http://www.w3.org/2000/svg">
<path fill-rule="evenodd" clip-rule="evenodd" d="M11.6666 11.668C10.1195 11.668 8.63576 12.2826 7.5418 13.3765C6.44783 14.4705 5.83325 15.9542 5.83325 17.5013V52.5013C5.83325 54.0484 6.44783 55.5321 7.5418 56.6261C8.63576 57.7201 10.1195 58.3346 11.6666 58.3346H58.3332C59.8803 58.3346 61.3641 57.7201 62.458 56.6261C63.552 55.5321 64.1666 54.0484 64.1666 52.5013V17.5013C64.1666 15.9542 63.552 14.4705 62.458 13.3765C61.3641 12.2826 59.8803 11.668 58.3332 11.668H11.6666ZM40.8333 26.2513C40.8333 25.4778 41.1405 24.7359 41.6875 24.1889C42.2345 23.6419 42.9764 23.3346 43.7499 23.3346H52.4999C53.2735 23.3346 54.0153 23.6419 54.5623 24.1889C55.1093 24.7359 55.4166 25.4778 55.4166 26.2513C55.4166 27.0248 55.1093 27.7667 54.5623 28.3137C54.0153 28.8607 53.2735 29.168 52.4999 29.168H43.7499C42.9764 29.168 42.2345 28.8607 41.6875 28.3137C41.1405 27.7667 40.8333 27.0248 40.8333 26.2513ZM40.8333 35.0013C40.8333 34.2278 41.1405 33.4859 41.6875 32.9389C42.2345 32.3919 42.9764 32.0846 43.7499 32.0846H52.4999C53.2735 32.0846 54.0153 32.3919 54.5623 32.9389C55.1093 33.4859 55.4166 34.2278 55.4166 35.0013C55.4166 35.7748 55.1093 36.5167 54.5623 37.0637C54.0153 37.6107 53.2735 37.918 52.4999 37.918H43.7499C42.9764 37.918 42.2345 37.6107 41.6875 37.0637C41.1405 36.5167 40.8333 35.7748 40.8333 35.0013ZM40.8333 43.7513C40.8333 42.9778 41.1405 42.2359 41.6875 41.6889C42.2345 41.1419 42.9764 40.8346 43.7499 40.8346H52.4999C53.2735 40.8346 54.0153 41.1419 54.5623 41.6889C55.1093 42.2359 55.4166 42.9778 55.4166 43.7513C55.4166 44.5248 55.1093 45.2667 54.5623 45.8137C54.0153 46.3607 53.2735 46.668 52.4999 46.668H43.7499C42.9764 46.668 42.2345 46.3607 41.6875 45.8137C41.1405 45.2667 40.8333 44.5248 40.8333 43.7513ZM17.4999 29.168C17.4999 26.8473 18.4218 24.6217 20.0627 22.9808C21.7037 21.3398 23.9293 20.418 26.2499 20.418C28.5706 20.418 30.7962 21.3398 32.4371 22.9808C34.078 24.6217 34.9999 26.8473 34.9999 29.168C34.9999 31.4886 34.078 33.7142 32.4371 35.3552C30.7962 36.9961 28.5706 37.918 26.2499 37.918C23.9293 37.918 21.7037 36.9961 20.0627 35.3552C18.4218 33.7142 17.4999 31.4886 17.4999 29.168ZM23.1641 40.8346C21.3273 40.834 19.5368 41.4114 18.0464 42.4851C16.5561 43.5588 15.4414 45.0742 14.8603 46.8167L14.732 47.2046L14.7203 47.2396C14.5978 47.6071 14.5599 47.7267 14.5978 47.8084C14.6153 47.8463 14.6562 47.8755 14.7087 47.9221C14.802 47.9951 14.942 48.1088 15.1345 48.3742C15.4047 48.7489 15.7601 49.054 16.1714 49.2644C16.5826 49.4749 17.038 49.5846 17.4999 49.5846H34.9999C35.4619 49.5846 35.9172 49.4749 36.3285 49.2644C36.7397 49.054 37.0951 48.7489 37.3653 48.3742C37.4834 48.2027 37.627 48.0502 37.7912 47.9221C37.8466 47.8755 37.8816 47.8463 37.902 47.8055C37.9428 47.7267 37.902 47.6071 37.7795 47.2396L37.7678 47.2046L37.6395 46.8167C37.0586 45.0747 35.9444 43.5596 34.4546 42.4859C32.9648 41.4123 31.175 40.8346 29.3387 40.8346H23.1641Z" fill="#2E3192"/>
</svg>
