<svg width="70" height="70" viewBox="0 0 70 70" fill="none" xmlns="http://www.w3.org/2000/svg">
<path d="M62.8823 7.28031C62.6826 7.0608 62.4404 6.88407 62.1703 6.7608C61.9003 6.63754 61.6081 6.57029 61.3114 6.56314C61.0147 6.55598 60.7196 6.60906 60.444 6.71917C60.1683 6.82927 59.9179 6.99412 59.7077 7.20375L58.0165 8.88676C57.8116 9.09186 57.6964 9.36995 57.6964 9.6599C57.6964 9.94986 57.8116 10.2279 58.0165 10.433L59.5669 11.9807C59.6685 12.0828 59.7893 12.1638 59.9224 12.2191C60.0554 12.2744 60.1981 12.3029 60.3421 12.3029C60.4862 12.3029 60.6288 12.2744 60.7618 12.2191C60.8949 12.1638 61.0157 12.0828 61.1173 11.9807L62.7661 10.3401C63.6001 9.50746 63.6781 8.15121 62.8823 7.28031ZM54.5972 12.3047L29.9167 36.9414C29.7671 37.0905 29.6583 37.2755 29.6009 37.4787L28.4593 40.8789C28.432 40.9712 28.43 41.0691 28.4537 41.1624C28.4774 41.2557 28.5258 41.3408 28.5938 41.4089C28.6619 41.4769 28.747 41.5253 28.8403 41.549C28.9336 41.5727 29.0315 41.5707 29.1238 41.5434L32.5212 40.4018C32.7244 40.3444 32.9095 40.2356 33.0585 40.086L57.6952 15.4028C57.9232 15.1724 58.051 14.8614 58.051 14.5373C58.051 14.2133 57.9232 13.9023 57.6952 13.6719L56.3349 12.3047C56.1042 12.0747 55.7918 11.9456 55.466 11.9456C55.1403 11.9456 54.8278 12.0747 54.5972 12.3047Z" fill="#2E3192"/>
<path d="M52.8199 26.477L36.1553 43.1744C35.5111 43.82 34.7195 44.2991 33.8488 44.5703L30.3078 45.7557C29.4674 45.993 28.579 46.0019 27.734 45.7816C26.889 45.5613 26.1181 45.1196 25.5006 44.5021C24.8831 43.8846 24.4415 43.1137 24.2211 42.2687C24.0008 41.4237 24.0098 40.5353 24.2471 39.6949L25.4324 36.1539C25.7029 35.2835 26.181 34.4919 26.8256 33.8475L43.523 17.1801C43.6761 17.0272 43.7804 16.8324 43.8227 16.6202C43.865 16.408 43.8435 16.1881 43.7608 15.9882C43.6781 15.7883 43.538 15.6174 43.3582 15.4971C43.1784 15.3769 42.9669 15.3126 42.7506 15.3125H14.2188C12.1882 15.3125 10.2408 16.1191 8.80496 17.555C7.36914 18.9908 6.5625 20.9382 6.5625 22.9688V55.7812C6.5625 57.8118 7.36914 59.7592 8.80496 61.195C10.2408 62.6309 12.1882 63.4375 14.2188 63.4375H47.0312C49.0618 63.4375 51.0092 62.6309 52.445 61.195C53.8809 59.7592 54.6875 57.8118 54.6875 55.7812V27.2494C54.6874 27.0331 54.6231 26.8216 54.5029 26.6418C54.3826 26.462 54.2117 26.3219 54.0118 26.2392C53.8119 26.1565 53.592 26.135 53.3798 26.1773C53.1676 26.2196 52.9728 26.3239 52.8199 26.477Z" fill="#2E3192"/>
</svg>
