<svg width="80" height="66" viewBox="0 0 80 66" fill="none" xmlns="http://www.w3.org/2000/svg">
<path d="M12.0258 32.9998C12.0258 44.4073 21.4746 53.6874 33.0876 53.6874C35.4413 53.6907 37.7787 53.3051 40.0021 52.5467V55.6899C36.4039 56.7447 32.6046 56.9593 28.907 56.3165C25.2095 55.6737 21.7159 54.1914 18.7049 51.9876C15.6939 49.7838 13.2486 46.9196 11.5641 43.6233C9.87952 40.3269 9.00228 36.6896 9.00228 33.0013C9.00228 29.313 9.87952 25.6756 11.5641 22.3793C13.2486 19.0829 15.6939 16.2187 18.7049 14.015C21.7159 11.8112 25.2095 10.3288 28.907 9.68606C32.6046 9.04329 36.4039 9.25787 40.0021 10.3127V13.4559C37.7789 12.6964 35.4414 12.3098 33.0876 12.3121C21.4746 12.3121 12.0258 21.5922 12.0258 32.9998Z" fill="#2E3192"/>
<path d="M4.5269 33C4.5269 48.4692 17.3396 61.0535 33.0878 61.0535C35.4182 61.0547 37.7402 60.7769 40.0022 60.2263V64.7886C37.729 65.2621 35.4115 65.5006 33.0878 65.5C24.3123 65.5 15.8963 62.0759 9.69118 55.981C3.48602 49.886 0 41.6195 0 33C0 24.3805 3.48602 16.114 9.69118 10.019C15.8963 3.9241 24.3123 0.500001 33.0878 0.500001C35.4115 0.499438 37.729 0.737884 40.0022 1.21144V5.77369C37.7402 5.22311 35.4182 4.94533 33.0878 4.94649C17.3396 4.94649 4.5269 17.5308 4.5269 33Z" fill="#2E3192"/>
<path d="M23.6485 27.97C24.1222 27.085 24.8465 26.3536 25.734 25.864C26.6337 25.3601 27.6691 25.1084 28.8404 25.1089C30.3265 25.1089 31.5753 25.4986 32.5868 26.278C33.5983 27.0574 34.2514 28.1161 34.5459 29.4542H30.9844C30.7952 29.0397 30.4875 28.6881 30.0986 28.4422C29.705 28.206 29.2508 28.0853 28.7897 28.0942C28.0243 28.0942 27.4137 28.3622 26.9578 28.8984C26.502 29.4345 26.2741 30.15 26.2741 31.0449C26.2741 31.9516 26.502 32.673 26.9578 33.2092C27.4137 33.7453 28.0243 34.0134 28.7897 34.0134C29.2509 34.0226 29.7051 33.9019 30.0986 33.6653C30.4875 33.4194 30.7952 33.0679 30.9844 32.6533H34.5474C34.255 33.9909 33.602 35.0496 32.5884 35.8295C31.5748 36.6094 30.326 36.9992 28.842 36.9986C27.6712 36.9986 26.6358 36.7472 25.7356 36.2443C24.8479 35.7546 24.1235 35.0229 23.6501 34.1376C23.161 33.237 22.9162 32.2061 22.9156 31.0449C22.9146 29.896 23.1589 28.871 23.6485 27.97Z" fill="#2E3192"/>
<path d="M38.7511 36.2619C37.8281 35.7591 37.061 35.0199 36.5314 34.123C35.985 33.2107 35.7119 32.1796 35.7119 31.0296C35.7119 29.8797 35.985 28.8488 36.5314 27.937C37.0597 27.0412 37.8273 26.3042 38.7511 25.8058C39.6967 25.3051 40.7541 25.043 41.8283 25.043C42.9025 25.043 43.9598 25.3051 44.9054 25.8058C45.8245 26.3048 46.5866 27.042 47.1087 27.937C47.6478 28.8483 47.9173 29.8792 47.9173 31.0296C47.9173 32.1801 47.647 33.2112 47.1064 34.123C46.5816 35.0206 45.817 35.7603 44.8952 36.2619C43.9528 36.768 42.896 37.0331 41.822 37.0331C40.748 37.0331 39.6912 36.768 38.7488 36.2619H38.7511ZM43.8244 33.2023C44.3156 32.6611 44.5612 31.9368 44.5612 31.0296C44.5612 30.1015 44.3164 29.3691 43.8267 28.8325C43.3371 28.2958 42.67 28.0278 41.8255 28.0283C40.9701 28.0283 40.3004 28.2963 39.8165 28.8325C39.3326 29.3686 39.0901 30.101 39.0891 31.0296C39.0891 31.9496 39.331 32.6766 39.815 33.2107C40.2989 33.7448 40.9685 34.0129 41.824 34.0149C42.6685 34.0149 43.3355 33.7441 43.8252 33.2023H43.8244Z" fill="#2E3192"/>
<path d="M57.3995 25.9631C58.312 26.4293 59.0662 27.1471 59.5692 28.0284C60.0761 28.9131 60.3295 29.9246 60.3295 31.0628C60.3295 32.1907 60.0732 33.1971 59.5607 34.0818C59.0505 34.9644 58.2952 35.6863 57.3831 36.1632C56.4423 36.6661 55.3532 36.9176 54.1159 36.9176H49.4048V25.2256H54.1159C55.3657 25.2256 56.4603 25.4714 57.3995 25.9631ZM56.1421 33.2691C56.6947 32.7473 56.971 32.0118 56.971 31.0628C56.971 30.1014 56.6952 29.358 56.1436 28.8326C55.5921 28.3072 54.8321 28.0445 53.8638 28.0445H52.7157V34.048H53.8638C54.8311 34.048 55.5905 33.7884 56.1421 33.2691Z" fill="#2E3192"/>
<path d="M65.124 27.8291V29.7365H68.9227V32.2073H65.124V34.3133H69.4293V36.9199H61.8147V25.2256H69.4293V27.8321L65.124 27.8291Z" fill="#2E3192"/>
<path d="M72.1478 36.0634C71.2585 35.4163 70.7801 34.4902 70.7124 33.2851H74.2419C74.2757 33.6939 74.3993 33.9924 74.6126 34.1805C74.8358 34.3527 75.1088 34.4511 75.3924 34.4616C75.6761 34.4721 75.9558 34.3941 76.1915 34.2388C76.2882 34.1662 76.3655 34.0717 76.417 33.9635C76.4685 33.8553 76.4926 33.7364 76.4874 33.617C76.4874 33.2741 76.324 33.0088 75.9972 32.8213C75.6704 32.6337 75.1415 32.4234 74.4104 32.1903C73.7659 31.9887 73.1368 31.7423 72.5279 31.4528C72.0354 31.2034 71.6081 30.8458 71.2791 30.4079C70.9247 29.9479 70.7476 29.3481 70.7476 28.6086C70.7476 27.8568 70.9388 27.2128 71.3212 26.6767C71.7191 26.128 72.2706 25.7045 72.9088 25.4577C73.5852 25.1807 74.3506 25.0425 75.205 25.043C76.5896 25.043 77.6953 25.3609 78.5221 25.9967C79.3489 26.6325 79.7912 27.5251 79.849 28.6745H76.2493C76.2373 28.3214 76.1275 28.0561 75.9199 27.8788C75.695 27.696 75.4092 27.6015 75.1176 27.6135C74.8943 27.605 74.6765 27.6823 74.5103 27.8289C74.3542 27.9731 74.2762 28.177 74.2762 28.4422C74.2755 28.5505 74.2984 28.6577 74.3436 28.7565C74.3887 28.8553 74.4549 28.9434 74.5377 29.0149C74.7303 29.1866 74.9498 29.3266 75.1878 29.4297C75.448 29.5452 75.8307 29.6916 76.3359 29.8689C76.9752 30.0766 77.5986 30.3287 78.2013 30.6233C78.6964 30.8764 79.1288 31.2331 79.4681 31.6682C79.8224 32.116 79.9996 32.6825 79.9996 33.3679C80.0096 34.0299 79.825 34.6807 79.4681 35.2423C79.1137 35.7948 78.6015 36.2315 77.9313 36.5525C77.2611 36.8734 76.4704 37.0337 75.5593 37.0332C74.1742 37.0332 73.037 36.7099 72.1478 36.0634Z" fill="#2E3192"/>
<path d="M46.4242 46.3156L45.4922 45.3903C45.1766 45.723 44.7974 45.9913 44.3761 46.1799C43.9523 46.3565 43.4955 46.444 43.0352 46.4368C42.5857 46.4453 42.1398 46.356 41.7295 46.1753C41.3689 46.0161 41.0631 45.7575 40.8491 45.4309C40.6363 45.0931 40.5278 44.7019 40.5368 44.3048C40.5286 43.8396 40.6779 43.3849 40.9614 43.0122C41.245 42.6391 41.6644 42.3457 42.2196 42.1321C42.0303 41.9205 41.8726 41.6836 41.7513 41.4283C41.6539 41.2062 41.605 40.9664 41.6077 40.7246C41.6007 40.4418 41.6778 40.1632 41.8294 39.9227C41.9906 39.6785 42.2198 39.4848 42.4897 39.3646C42.8014 39.2254 43.1409 39.1568 43.4832 39.1637C43.8167 39.1556 44.1472 39.228 44.4456 39.3745C44.7069 39.504 44.9213 39.7093 45.0599 39.9625C45.1982 40.2219 45.2619 40.5135 45.244 40.8058H44.3145C44.3212 40.5309 44.2432 40.3147 44.0803 40.1573C43.9961 40.0779 43.8964 40.016 43.7872 39.9753C43.6781 39.9346 43.5617 39.9159 43.445 39.9204C43.2029 39.9102 42.9662 39.9927 42.7847 40.1504C42.7028 40.2232 42.6381 40.3126 42.5948 40.4124C42.5516 40.5122 42.5309 40.62 42.5342 40.7284C42.5355 40.9343 42.5938 41.1359 42.7027 41.3118C42.8666 41.561 43.0571 41.7923 43.2709 42.0018L45.4009 44.1031L45.5851 43.8218L46.2813 42.6718H47.2843L46.4452 44.0993C46.3287 44.3007 46.1921 44.512 46.0355 44.7333L47.6433 46.3118L46.4242 46.3156ZM44.0335 45.4424C44.3563 45.2816 44.6434 45.0593 44.878 44.7885L42.7792 42.7186C41.9051 43.0477 41.4682 43.5672 41.4688 44.2772C41.4642 44.4626 41.5007 44.6468 41.5758 44.8171C41.6508 44.9873 41.7627 45.1395 41.9035 45.263C42.1939 45.5242 42.5711 45.6548 43.0352 45.6548C43.3801 45.6596 43.7216 45.587 44.0335 45.4424Z" fill="#2E3192"/>
<path d="M51.3687 40.9609C51.6705 40.4267 52.1149 39.9835 52.6542 39.679C53.2037 39.3695 53.8277 39.2107 54.461 39.2191C55.2415 39.2191 55.9206 39.4036 56.4981 39.7726C57.0831 40.1467 57.5287 40.6971 57.768 41.3411H56.6519C56.4711 40.9392 56.1722 40.5996 55.7934 40.366C55.3901 40.1296 54.9266 40.011 54.4571 40.024C53.9869 40.0165 53.5234 40.1347 53.1162 40.366C52.718 40.5956 52.3947 40.932 52.1843 41.3357C51.9618 41.7944 51.8463 42.2961 51.8463 42.8042C51.8463 43.3123 51.9618 43.814 52.1843 44.2727C52.3949 44.6765 52.7181 45.0132 53.1162 45.2433C53.5235 45.4742 53.9869 45.5923 54.4571 45.5852C54.9259 45.5979 55.3889 45.481 55.7934 45.2479C56.1726 45.0168 56.4719 44.6785 56.6519 44.2773H57.768C57.5275 44.9169 57.0818 45.4623 56.4981 45.8313C55.9185 46.1967 55.2395 46.3794 54.461 46.3794C53.8279 46.3861 53.2043 46.2274 52.6542 45.9195C52.1156 45.6186 51.6711 45.1788 51.3687 44.6476C51.0597 44.0807 50.8981 43.4476 50.8981 42.8046C50.8981 42.1616 51.0597 41.5285 51.3687 40.9616V40.9609Z" fill="#2E3192"/>
<path d="M60.5731 45.9288C60.0306 45.6276 59.5827 45.1858 59.2783 44.6516C58.9658 44.085 58.8022 43.4507 58.8022 42.8063C58.8022 42.1619 58.9658 41.5277 59.2783 40.961C59.5827 40.4268 60.0306 39.985 60.5731 39.6838C61.1301 39.3835 61.7552 39.2261 62.3905 39.2261C63.0259 39.2261 63.651 39.3835 64.2079 39.6838C64.7485 39.9839 65.1948 40.4241 65.4981 40.9564C65.8071 41.5259 65.9687 42.1614 65.9687 42.8067C65.9687 43.452 65.8071 44.0875 65.4981 44.657C65.1946 45.1889 64.7483 45.6288 64.2079 45.9288C63.651 46.2291 63.0259 46.3866 62.3905 46.3866C61.7552 46.3866 61.1301 46.2291 60.5731 45.9288ZM63.7318 45.2503C64.1338 45.0195 64.4605 44.681 64.6739 44.2744C64.8994 43.8157 65.0165 43.313 65.0165 42.8036C65.0165 42.2943 64.8994 41.7915 64.6739 41.3328C64.4605 40.9297 64.1359 40.5936 63.7373 40.363C63.3234 40.1388 62.8585 40.0211 62.3858 40.0211C61.9132 40.0211 61.4482 40.1388 61.0344 40.363C60.6359 40.5937 60.3113 40.9298 60.0978 41.3328C59.8723 41.7915 59.7552 42.2943 59.7552 42.8036C59.7552 43.313 59.8723 43.8157 60.0978 44.2744C60.3109 44.6811 60.6377 45.0197 61.0399 45.2503C61.4519 45.4746 61.9152 45.5923 62.3862 45.5923C62.8573 45.5923 63.3206 45.4746 63.7326 45.2503H63.7318Z" fill="#2E3192"/>
<path d="M72.603 41.338C72.4192 40.9445 72.1204 40.6135 71.7445 40.3874C71.3479 40.1574 70.8937 40.0408 70.4332 40.0508C69.962 40.0439 69.4974 40.1601 69.0869 40.3874C68.6856 40.6144 68.359 40.9496 68.1456 41.3533C67.9197 41.8046 67.8022 42.3009 67.8022 42.8038C67.8022 43.3067 67.9197 43.8029 68.1456 44.2543C68.3603 44.6556 68.6867 44.9888 69.0869 45.2149C69.4974 45.4421 69.962 45.5583 70.4332 45.5514C71.1294 45.5514 71.7018 45.347 72.1503 44.9381C72.5989 44.5292 72.8616 43.9762 72.9386 43.2791H70.0929V42.5347H73.9322V43.2385C73.8817 43.8028 73.6917 44.3464 73.3788 44.8223C73.07 45.2977 72.6439 45.6887 72.1402 45.9593C71.6162 46.2404 71.0272 46.3841 70.4301 46.3763C69.7955 46.3826 69.1705 46.2239 68.6186 45.9163C68.0771 45.6159 67.6292 45.1762 67.3229 44.6445C67.0105 44.0787 66.8468 43.4452 66.8468 42.8015C66.8468 42.1578 67.0105 41.5243 67.3229 40.9585C67.6279 40.4244 68.076 39.9827 68.6186 39.6813C69.1705 39.3737 69.7955 39.215 70.4301 39.2213C71.1415 39.2086 71.8411 39.401 72.4422 39.7748C73.0274 40.1454 73.4746 40.6922 73.7168 41.3334L72.603 41.338Z" fill="#2E3192"/>
<path d="M76.1612 46.14C75.8119 45.9938 75.5093 45.7575 75.2854 45.4562C75.0726 45.1604 74.9581 44.8072 74.9576 44.445H75.9512C75.9799 44.7626 76.1276 45.0585 76.3657 45.2753C76.6076 45.4996 76.9609 45.6118 77.4256 45.6118C77.8689 45.6118 78.2186 45.503 78.4746 45.2852C78.5992 45.1822 78.6984 45.0528 78.7649 44.9068C78.8314 44.7608 78.8634 44.6018 78.8586 44.4419C78.8693 44.2043 78.7891 43.9713 78.6338 43.7888C78.4801 43.6183 78.2868 43.4869 78.0703 43.4054C77.772 43.2957 77.468 43.2018 77.1594 43.1241C76.7736 43.0312 76.3953 42.9102 76.0277 42.7622C75.7398 42.6374 75.4895 42.4418 75.3011 42.1942C75.0997 41.9361 74.999 41.589 74.999 41.1531C74.9926 40.793 75.0959 40.4393 75.2956 40.1373C75.5015 39.8358 75.7911 39.5985 76.1299 39.4534C76.5187 39.2864 76.9397 39.204 77.3639 39.2119C78.0325 39.2119 78.5805 39.3763 79.0076 39.7049C79.2142 39.8602 79.3852 40.0566 79.5095 40.2811C79.6337 40.5057 79.7085 40.7534 79.7288 41.0082H78.7056C78.6615 40.7285 78.5084 40.4767 78.2787 40.3059C78.0258 40.1015 77.6912 39.9993 77.2749 39.9993C76.8863 39.9993 76.5688 40.0982 76.3227 40.296C76.0766 40.4938 75.9538 40.7705 75.9543 41.1262C75.9447 41.3539 76.0233 41.5766 76.1744 41.7495C76.3247 41.9123 76.5119 42.0381 76.7208 42.1167C76.9362 42.2006 77.2383 42.2959 77.6269 42.4027C78.0142 42.5025 78.3939 42.6285 78.7634 42.7799C79.0541 42.9076 79.3076 43.1047 79.5009 43.3533C79.7054 43.6119 79.8077 43.9623 79.8077 44.4044C79.8081 44.745 79.7124 45.0791 79.5314 45.3696C79.3332 45.6843 79.0497 45.9386 78.7126 46.104C78.3159 46.2995 77.8763 46.3961 77.4326 46.3854C76.9958 46.3939 76.5622 46.3102 76.1612 46.14Z" fill="#2E3192"/>
</svg>
