<svg width="130" height="108" viewBox="0 0 130 108" fill="none" xmlns="http://www.w3.org/2000/svg">
<path d="M19.5419 53.7675C19.5419 72.6401 34.8961 87.993 53.7674 87.993C57.592 87.9984 61.3904 87.3604 65.0034 86.1057V91.3058C59.1563 93.0509 52.9824 93.4059 46.9739 92.3425C40.9654 91.2791 35.2883 88.8267 30.3954 85.1808C25.5025 81.5349 21.5289 76.7964 18.7915 71.343C16.0542 65.8895 14.6287 59.872 14.6287 53.7701C14.6287 47.6682 16.0542 41.6506 18.7915 36.1972C21.5289 30.7437 25.5025 26.0052 30.3954 22.3593C35.2883 18.7134 40.9654 16.261 46.9739 15.1976C52.9824 14.1342 59.1563 14.4892 65.0034 16.2343V21.4344C61.3906 20.178 57.5923 19.5383 53.7674 19.5421C34.8961 19.5421 19.5419 34.895 19.5419 53.7675Z" fill="white"/>
<path d="M7.35622 53.7676C7.35622 79.3596 28.1769 100.179 53.7676 100.179C57.5546 100.181 61.3278 99.7214 65.0036 98.8105V106.358C61.3096 107.142 57.5438 107.536 53.7676 107.535C39.5076 107.535 25.8316 101.87 15.7482 91.7871C5.66479 81.7037 0 68.0277 0 53.7676C0 39.5076 5.66479 25.8316 15.7482 15.7482C25.8316 5.66479 39.5076 1.64789e-06 53.7676 1.64789e-06C57.5438 -0.000930444 61.3096 0.393552 65.0036 1.177V8.72473C61.3278 7.81385 57.5546 7.3543 53.7676 7.35622C28.1769 7.35622 7.35622 28.1756 7.35622 53.7676Z" fill="white"/>
<path d="M38.4289 45.4462C39.1986 43.9821 40.3756 42.7721 41.8178 41.9621C43.2797 41.1284 44.9624 40.712 46.8657 40.7128C49.2806 40.7128 51.3099 41.3576 52.9536 42.647C54.5973 43.9365 55.6585 45.688 56.1371 47.9016H50.3497C50.0423 47.2159 49.5422 46.6342 48.9102 46.2275C48.2706 45.8367 47.5326 45.6369 46.7833 45.6516C45.5395 45.6516 44.5472 46.0951 43.8065 46.9821C43.0658 47.8691 42.6955 49.0528 42.6955 50.5334C42.6955 52.0334 43.0658 53.2269 43.8065 54.1138C44.5472 55.0008 45.5395 55.4443 46.7833 55.4443C47.5327 55.4596 48.2709 55.2598 48.9102 54.8685C49.5422 54.4617 50.0423 53.8801 50.3497 53.1943H56.1396C55.6644 55.4071 54.6032 57.1586 52.9561 58.4489C51.309 59.7392 49.2797 60.3839 46.8682 60.3831C44.9658 60.3831 43.2831 59.9671 41.8203 59.1351C40.3778 58.325 39.2007 57.1145 38.4314 55.6498C37.6366 54.1599 37.2388 52.4545 37.2379 50.5334C37.2362 48.6326 37.6332 46.9369 38.4289 45.4462Z" fill="white"/>
<path d="M62.9706 59.1644C61.4706 58.3325 60.224 57.1096 59.3635 55.6258C58.4756 54.1165 58.0317 52.4106 58.0317 50.5082C58.0317 48.6057 58.4756 46.9002 59.3635 45.3918C60.222 43.9097 61.4693 42.6904 62.9706 41.8659C64.5071 41.0375 66.2253 40.6039 67.9709 40.6039C69.7165 40.6039 71.4347 41.0375 72.9712 41.8659C74.4648 42.6915 75.7032 43.9111 76.5517 45.3918C77.4276 46.8994 77.8656 48.6049 77.8656 50.5082C77.8656 52.4115 77.4264 54.1174 76.5478 55.6258C75.6951 57.1108 74.4526 58.3345 72.9547 59.1644C71.4233 60.0016 69.706 60.4403 67.9607 60.4403C66.2154 60.4403 64.4982 60.0016 62.9668 59.1644H62.9706ZM71.2146 54.1026C72.0128 53.2072 72.4119 52.009 72.4119 50.5082C72.4119 48.9727 72.0141 47.761 71.2184 46.8732C70.4227 45.9854 69.3388 45.5419 67.9664 45.5427C66.5764 45.5427 65.4882 45.9862 64.7018 46.8732C63.9154 47.7602 63.5214 48.9718 63.5197 50.5082C63.5197 52.0302 63.9129 53.2329 64.6993 54.1165C65.4856 55.0001 66.5738 55.4436 67.9639 55.447C69.3362 55.447 70.4202 54.9989 71.2159 54.1026H71.2146Z" fill="white"/>
<path d="M93.2742 42.1257C94.7571 42.897 95.9826 44.0845 96.8001 45.5425C97.6236 47.0062 98.0354 48.6795 98.0354 50.5625C98.0354 52.4286 97.619 54.0935 96.7861 55.5571C95.957 57.0173 94.7298 58.2116 93.2475 59.0006C91.7188 59.8326 89.9491 60.2486 87.9384 60.2486H80.2828V40.9056H87.9384C89.9694 40.9056 91.748 41.3123 93.2742 42.1257ZM91.2309 54.2127C92.1289 53.3494 92.5779 52.1327 92.5779 50.5625C92.5779 48.9721 92.1297 47.7422 91.2335 46.873C90.3372 46.0038 89.1023 45.5692 87.5287 45.5692H85.663V55.5013H87.5287C89.1006 55.5013 90.3346 55.0718 91.2309 54.2127V54.2127Z" fill="white"/>
<path d="M105.827 45.2128V48.3683H112V52.4561H105.827V55.9402H112.823V60.2524H100.449V40.9056H112.823V45.2178L105.827 45.2128Z" fill="white"/>
<path d="M117.24 58.8359C115.795 57.7654 115.018 56.2333 114.908 54.2395H120.643C120.698 54.916 120.899 55.4098 121.245 55.7209C121.608 56.0059 122.052 56.1687 122.513 56.186C122.974 56.2033 123.428 56.0742 123.811 55.8173C123.968 55.6972 124.094 55.541 124.178 55.3619C124.261 55.1828 124.301 54.9862 124.292 54.7887C124.292 54.2213 124.026 53.7825 123.495 53.4722C122.964 53.1619 122.105 52.8139 120.917 52.4284C119.87 52.0948 118.847 51.6871 117.858 51.2083C117.058 50.7956 116.363 50.2041 115.828 49.4795C115.253 48.7186 114.965 47.7263 114.965 46.5028C114.965 45.259 115.276 44.1936 115.897 43.3067C116.544 42.3989 117.44 41.6984 118.477 41.29C119.576 40.8318 120.82 40.603 122.208 40.6039C124.458 40.6039 126.255 41.1298 127.598 42.1817C128.942 43.2335 129.661 44.7103 129.755 46.6119H123.905C123.886 46.0276 123.707 45.5888 123.37 45.2954C123.004 44.993 122.54 44.8367 122.066 44.8565C121.703 44.8424 121.349 44.9703 121.079 45.2129C120.826 45.4514 120.699 45.7888 120.699 46.2276C120.698 46.4067 120.735 46.584 120.808 46.7475C120.882 46.9109 120.989 47.0567 121.124 47.175C121.437 47.459 121.793 47.6907 122.18 47.8612C122.603 48.0523 123.225 48.2945 124.046 48.5879C125.085 48.9315 126.098 49.3485 127.077 49.8359C127.882 50.2546 128.584 50.8447 129.136 51.5647C129.711 52.3053 129.999 53.2426 129.999 54.3765C130.016 55.4717 129.716 56.5484 129.136 57.4775C128.56 58.3916 127.727 59.1141 126.638 59.6451C125.549 60.1761 124.264 60.4412 122.784 60.4403C120.533 60.4403 118.685 59.9055 117.24 58.8359Z" fill="white"/>
<path d="M75.4393 75.797L73.9249 74.2661C73.4121 74.8165 72.7958 75.2604 72.1113 75.5725C71.4225 75.8646 70.6803 76.0093 69.9323 75.9974C69.2018 76.0114 68.4772 75.8638 67.8104 75.5649C67.2245 75.3014 66.7275 74.8736 66.3798 74.3333C66.034 73.7744 65.8578 73.1272 65.8724 72.4702C65.859 71.7006 66.1017 70.9484 66.5624 70.3318C67.0232 69.7146 67.7047 69.2292 68.6069 68.8758C68.2993 68.5257 68.0431 68.1337 67.8459 67.7115C67.6876 67.3439 67.6081 66.9473 67.6125 66.5472C67.6013 66.0794 67.7264 65.6184 67.9728 65.2205C68.2348 64.8165 68.6072 64.4961 69.0457 64.2972C69.5523 64.067 70.104 63.9534 70.6603 63.9649C71.2023 63.9515 71.7392 64.0713 72.2241 64.3137C72.6487 64.5279 72.9972 64.8675 73.2223 65.2865C73.4471 65.7156 73.5506 66.198 73.5216 66.6816H72.0111C72.0221 66.2267 71.8952 65.869 71.6306 65.6086C71.4937 65.4773 71.3317 65.3749 71.1543 65.3075C70.9769 65.2402 70.7878 65.2093 70.5982 65.2167C70.2047 65.1999 69.8201 65.3363 69.5252 65.5972C69.3922 65.7177 69.2869 65.8655 69.2166 66.0306C69.1463 66.1958 69.1127 66.3741 69.118 66.5535C69.1203 66.8941 69.215 67.2277 69.392 67.5187C69.6583 67.9309 69.9679 68.3136 70.3153 68.6602L73.7766 72.1366L74.0759 71.6711L75.2072 69.7687H76.837L75.4736 72.1303C75.2842 72.4634 75.0622 72.8131 74.8077 73.1792L77.4204 75.7906L75.4393 75.797ZM71.5545 74.3524C72.0791 74.0862 72.5455 73.7185 72.9268 73.2705L69.5163 69.846C68.0958 70.3906 67.3859 71.2501 67.3868 72.4245C67.3793 72.7313 67.4387 73.0361 67.5606 73.3177C67.6826 73.5994 67.8644 73.8511 68.0932 74.0556C68.5651 74.4876 69.1781 74.7037 69.9323 74.7037C70.4927 74.7117 71.0476 74.5915 71.5545 74.3524V74.3524Z" fill="white"/>
<path d="M83.4741 66.9379C83.9645 66.0542 84.6867 65.321 85.563 64.8173C86.4559 64.3053 87.4699 64.0424 88.4991 64.0563C89.7674 64.0563 90.8709 64.3615 91.8094 64.972C92.76 65.5909 93.4841 66.5015 93.873 67.567H92.0593C91.7656 66.9021 91.2797 66.3403 90.6641 65.9537C90.0088 65.5627 89.2556 65.3664 88.4928 65.388C87.7286 65.3756 86.9754 65.5711 86.3138 65.9537C85.6667 66.3336 85.1414 66.8902 84.7995 67.5581C84.4379 68.317 84.2502 69.147 84.2502 69.9876C84.2502 70.8282 84.4379 71.6582 84.7995 72.417C85.1417 73.0851 85.6669 73.642 86.3138 74.0227C86.9757 74.4047 87.7287 74.6002 88.4928 74.5884C89.2545 74.6093 90.0069 74.416 90.6641 74.0303C91.2804 73.648 91.7668 73.0883 92.0593 72.4246H93.873C93.4821 73.4827 92.7579 74.385 91.8094 74.9955C90.8675 75.6001 89.7641 75.9024 88.4991 75.9024C87.4703 75.9134 86.4569 75.6508 85.563 75.1414C84.6878 74.6436 83.9655 73.916 83.4741 73.0372C82.972 72.0994 82.7094 71.052 82.7094 69.9882C82.7094 68.9244 82.972 67.8771 83.4741 66.9392V66.9379Z" fill="white"/>
<path d="M98.4314 75.1566C97.5497 74.6582 96.8219 73.9273 96.3272 73.0436C95.8195 72.1061 95.5536 71.0568 95.5536 69.9907C95.5536 68.9246 95.8195 67.8753 96.3272 66.9379C96.8219 66.0542 97.5497 65.3233 98.4314 64.8249C99.3364 64.3281 100.352 64.0676 101.385 64.0676C102.417 64.0676 103.433 64.3281 104.338 64.8249C105.216 65.3214 105.942 66.0497 106.434 66.9303C106.937 67.8725 107.199 68.9237 107.199 69.9914C107.199 71.059 106.937 72.1102 106.434 73.0524C105.941 73.9324 105.216 74.6602 104.338 75.1566C103.433 75.6534 102.417 75.9138 101.385 75.9138C100.352 75.9138 99.3364 75.6534 98.4314 75.1566ZM103.564 74.0341C104.217 73.6521 104.748 73.0921 105.095 72.4196C105.461 71.6607 105.652 70.829 105.652 69.9863C105.652 69.1436 105.461 68.3119 105.095 67.553C104.748 66.886 104.221 66.33 103.573 65.9486C102.901 65.5775 102.145 65.3829 101.377 65.3829C100.609 65.3829 99.8534 65.5775 99.1809 65.9486C98.5333 66.3303 98.006 66.8862 97.659 67.553C97.2926 68.3119 97.1022 69.1436 97.1022 69.9863C97.1022 70.829 97.2926 71.6607 97.659 72.4196C98.0053 73.0924 98.5363 73.6525 99.1898 74.0341C99.8593 74.4051 100.612 74.5998 101.378 74.5998C102.143 74.5998 102.896 74.4051 103.566 74.0341H103.564Z" fill="white"/>
<path d="M117.98 67.5618C117.681 66.9108 117.196 66.3633 116.585 65.9891C115.94 65.6086 115.202 65.4158 114.454 65.4323C113.688 65.4209 112.933 65.6131 112.266 65.9891C111.614 66.3648 111.083 66.9193 110.737 67.5872C110.369 68.3338 110.179 69.1548 110.179 69.9868C110.179 70.8189 110.369 71.6398 110.737 72.3865C111.085 73.0505 111.616 73.6017 112.266 73.9757C112.933 74.3517 113.688 74.5438 114.454 74.5325C115.585 74.5325 116.515 74.1943 117.244 73.5178C117.973 72.8414 118.4 71.9265 118.525 70.7732H113.901V69.5417H120.14V70.706C120.058 71.6395 119.749 72.539 119.241 73.3263C118.739 74.1127 118.046 74.7596 117.228 75.2072C116.376 75.6724 115.419 75.91 114.449 75.8972C113.418 75.9076 112.402 75.6451 111.505 75.1362C110.625 74.6391 109.897 73.9117 109.4 73.0321C108.892 72.096 108.626 71.0479 108.626 69.983C108.626 68.9181 108.892 67.8701 109.4 66.934C109.895 66.0505 110.623 65.3196 111.505 64.821C112.402 64.3121 113.418 64.0496 114.449 64.06C115.605 64.0389 116.742 64.3573 117.719 64.9757C118.669 65.5889 119.396 66.4935 119.79 67.5542L117.98 67.5618Z" fill="white"/>
<path d="M123.762 75.5065C123.194 75.2645 122.703 74.8736 122.339 74.3752C121.993 73.8858 121.807 73.3015 121.806 72.7023H123.421C123.467 73.2277 123.707 73.7172 124.094 74.0758C124.487 74.447 125.061 74.6326 125.817 74.6326C126.537 74.6326 127.105 74.4525 127.521 74.0923C127.724 73.9219 127.885 73.7078 127.993 73.4662C128.101 73.2246 128.153 72.9617 128.145 72.6972C128.163 72.304 128.032 71.9186 127.78 71.6166C127.53 71.3346 127.216 71.1171 126.864 70.9824C126.379 70.8009 125.885 70.6455 125.384 70.517C124.757 70.3632 124.142 70.1631 123.545 69.9183C123.077 69.7118 122.67 69.3881 122.364 68.9785C122.037 68.5515 121.873 67.9774 121.873 67.2561C121.863 66.6604 122.031 66.0752 122.355 65.5756C122.69 65.0768 123.16 64.6842 123.711 64.4443C124.343 64.1679 125.027 64.0316 125.716 64.0447C126.803 64.0447 127.693 64.3166 128.387 64.8603C128.723 65.1173 129.001 65.4421 129.203 65.8136C129.405 66.1851 129.526 66.5949 129.559 67.0164H127.897C127.825 66.5537 127.576 66.1371 127.203 65.8546C126.792 65.5164 126.248 65.3473 125.572 65.3473C124.94 65.3473 124.424 65.5109 124.024 65.8381C123.624 66.1654 123.425 66.6232 123.426 67.2117C123.41 67.5883 123.538 67.9569 123.783 68.2429C124.028 68.5122 124.332 68.7203 124.671 68.8504C125.021 68.9891 125.512 69.1468 126.144 69.3235C126.773 69.4885 127.39 69.697 127.99 69.9475C128.463 70.1588 128.875 70.4849 129.189 70.8962C129.521 71.324 129.687 71.9036 129.687 72.635C129.688 73.1986 129.533 73.7512 129.238 74.2318C128.916 74.7525 128.456 75.1732 127.908 75.4469C127.263 75.7703 126.549 75.9302 125.828 75.9124C125.118 75.9265 124.414 75.7881 123.762 75.5065V75.5065Z" fill="white"/>
</svg>
