<svg width="70" height="70" viewBox="0 0 70 70" fill="none" xmlns="http://www.w3.org/2000/svg">
<path d="M46.6667 26.2502C46.6667 41.796 23.3334 41.796 23.3334 26.2502H29.1667C29.1667 34.0377 40.8334 34.0377 40.8334 26.2502M58.3334 52.5002V61.2502H11.6667V52.5002C11.6667 44.7127 27.2126 40.8335 35.0001 40.8335C42.7876 40.8335 58.3334 44.7127 58.3334 52.5002ZM52.7918 52.5002C52.7918 50.6335 43.6626 46.3752 35.0001 46.3752C26.3376 46.3752 17.2084 50.6335 17.2084 52.5002V55.7085H52.7918M36.4584 5.8335C37.2751 5.8335 37.9167 6.47516 37.9167 7.29183V16.0418H40.8334V8.75016C42.8976 9.70544 44.627 11.2591 45.7972 13.2094C46.9674 15.1598 47.5244 17.4168 47.3959 19.6877C47.3959 19.6877 49.4376 20.096 49.5834 23.3335H20.4167C20.4167 20.096 22.6042 19.6877 22.6042 19.6877C22.4758 17.4168 23.0328 15.1598 24.203 13.2094C25.3732 11.2591 27.1026 9.70544 29.1667 8.75016V16.0418H32.0834V7.29183C32.0834 6.47516 32.7251 5.8335 33.5417 5.8335" fill="#2E3192"/>
</svg>
