<svg width="70" height="70" viewBox="0 0 70 70" fill="none" xmlns="http://www.w3.org/2000/svg">
<path fill-rule="evenodd" clip-rule="evenodd" d="M58.3334 11.6668H11.6667C10.8932 11.6668 10.1513 11.9741 9.60435 12.5211C9.05737 13.0681 8.75008 13.8099 8.75008 14.5835V55.4168C8.75008 56.1904 9.05737 56.9322 9.60435 57.4792C10.1513 58.0262 10.8932 58.3335 11.6667 58.3335H58.3334C59.107 58.3335 59.8488 58.0262 60.3958 57.4792C60.9428 56.9322 61.2501 56.1904 61.2501 55.4168V14.5835C61.2501 13.8099 60.9428 13.0681 60.3958 12.5211C59.8488 11.9741 59.107 11.6668 58.3334 11.6668ZM11.6667 5.8335C9.3461 5.8335 7.12051 6.75537 5.47956 8.39631C3.83862 10.0373 2.91675 12.2629 2.91675 14.5835V55.4168C2.91675 57.7375 3.83862 59.9631 5.47956 61.604C7.12051 63.245 9.3461 64.1668 11.6667 64.1668H58.3334C60.6541 64.1668 62.8797 63.245 64.5206 61.604C66.1615 59.9631 67.0834 57.7375 67.0834 55.4168V14.5835C67.0834 12.2629 66.1615 10.0373 64.5206 8.39631C62.8797 6.75537 60.6541 5.8335 58.3334 5.8335H11.6667ZM17.5001 20.4168H23.3334V26.2502H17.5001V20.4168ZM32.0834 20.4168C31.3099 20.4168 30.568 20.7241 30.021 21.2711C29.474 21.8181 29.1667 22.5599 29.1667 23.3335C29.1667 24.107 29.474 24.8489 30.021 25.3959C30.568 25.9429 31.3099 26.2502 32.0834 26.2502H49.5834C50.357 26.2502 51.0988 25.9429 51.6458 25.3959C52.1928 24.8489 52.5001 24.107 52.5001 23.3335C52.5001 22.5599 52.1928 21.8181 51.6458 21.2711C51.0988 20.7241 50.357 20.4168 49.5834 20.4168H32.0834ZM23.3334 32.0835H17.5001V37.9168H23.3334V32.0835ZM29.1667 35.0002C29.1667 34.2266 29.474 33.4847 30.021 32.9378C30.568 32.3908 31.3099 32.0835 32.0834 32.0835H49.5834C50.357 32.0835 51.0988 32.3908 51.6458 32.9378C52.1928 33.4847 52.5001 34.2266 52.5001 35.0002C52.5001 35.7737 52.1928 36.5156 51.6458 37.0626C51.0988 37.6095 50.357 37.9168 49.5834 37.9168H32.0834C31.3099 37.9168 30.568 37.6095 30.021 37.0626C29.474 36.5156 29.1667 35.7737 29.1667 35.0002ZM23.3334 43.7502H17.5001V49.5835H23.3334V43.7502ZM29.1667 46.6668C29.1667 45.8933 29.474 45.1514 30.021 44.6044C30.568 44.0575 31.3099 43.7502 32.0834 43.7502H49.5834C50.357 43.7502 51.0988 44.0575 51.6458 44.6044C52.1928 45.1514 52.5001 45.8933 52.5001 46.6668C52.5001 47.4404 52.1928 48.1822 51.6458 48.7292C51.0988 49.2762 50.357 49.5835 49.5834 49.5835H32.0834C31.3099 49.5835 30.568 49.2762 30.021 48.7292C29.474 48.1822 29.1667 47.4404 29.1667 46.6668Z" fill="#2E3192"/>
</svg>
