<svg width="62" height="62" viewBox="0 0 62 62" fill="none" xmlns="http://www.w3.org/2000/svg">
<path d="M43.3999 8.5252C43.3999 7.90857 43.6449 7.31719 44.0809 6.88117C44.5169 6.44515 45.1083 6.2002 45.7249 6.2002H53.4749C54.0916 6.2002 54.6829 6.44515 55.119 6.88117C55.555 7.31719 55.7999 7.90857 55.7999 8.5252V16.2752C55.7999 16.8918 55.555 17.4832 55.119 17.9192C54.6829 18.3552 54.0916 18.6002 53.4749 18.6002C52.8583 18.6002 52.2669 18.3552 51.8309 17.9192C51.3949 17.4832 51.1499 16.8918 51.1499 16.2752V14.1362L37.2929 27.9932C36.857 28.4286 36.2661 28.6731 35.6499 28.6731C35.0338 28.6731 34.4429 28.4286 34.0069 27.9932L26.3499 20.3362L13.2679 33.4182C13.0551 33.6466 12.7984 33.8298 12.5132 33.9569C12.228 34.084 11.9201 34.1523 11.608 34.1578C11.2958 34.1633 10.9857 34.1059 10.6962 33.989C10.4067 33.872 10.1437 33.698 9.92292 33.4772C9.70214 33.2564 9.52809 32.9935 9.41116 32.7039C9.29422 32.4144 9.2368 32.1044 9.24231 31.7922C9.24781 31.48 9.31614 31.1721 9.44322 30.8869C9.57029 30.6017 9.75351 30.345 9.98194 30.1322L24.7069 15.4072C25.1429 14.9718 25.7338 14.7272 26.3499 14.7272C26.9661 14.7272 27.557 14.9718 27.9929 15.4072L35.6499 23.0642L47.8639 10.8502H45.7249C45.1083 10.8502 44.5169 10.6052 44.0809 10.1692C43.6449 9.7332 43.3999 9.14182 43.3999 8.5252ZM11.6249 43.4002C12.2416 43.4002 12.8329 43.6451 13.269 44.0812C13.705 44.5172 13.9499 45.1086 13.9499 45.7252V53.4752C13.9499 54.0918 13.705 54.6832 13.269 55.1192C12.8329 55.5552 12.2416 55.8002 11.6249 55.8002C11.0083 55.8002 10.4169 55.5552 9.98092 55.1192C9.54489 54.6832 9.29994 54.0918 9.29994 53.4752V45.7252C9.29994 45.1086 9.54489 44.5172 9.98092 44.0812C10.4169 43.6451 11.0083 43.4002 11.6249 43.4002ZM26.3499 36.4252C26.3499 35.8086 26.105 35.2172 25.669 34.7812C25.2329 34.3451 24.6416 34.1002 24.0249 34.1002C23.4083 34.1002 22.8169 34.3451 22.3809 34.7812C21.9449 35.2172 21.6999 35.8086 21.6999 36.4252V53.4752C21.6999 54.0918 21.9449 54.6832 22.3809 55.1192C22.8169 55.5552 23.4083 55.8002 24.0249 55.8002C24.6416 55.8002 25.2329 55.5552 25.669 55.1192C26.105 54.6832 26.3499 54.0918 26.3499 53.4752V36.4252ZM36.4249 40.3002C37.0416 40.3002 37.6329 40.5452 38.069 40.9812C38.505 41.4172 38.7499 42.0086 38.7499 42.6252V53.4752C38.7499 54.0918 38.505 54.6832 38.069 55.1192C37.6329 55.5552 37.0416 55.8002 36.4249 55.8002C35.8083 55.8002 35.2169 55.5552 34.7809 55.1192C34.3449 54.6832 34.0999 54.0918 34.0999 53.4752V42.6252C34.0999 42.0086 34.3449 41.4172 34.7809 40.9812C35.2169 40.5452 35.8083 40.3002 36.4249 40.3002ZM51.1499 30.2252C51.1499 29.6086 50.905 29.0172 50.469 28.5812C50.0329 28.1452 49.4416 27.9002 48.8249 27.9002C48.2083 27.9002 47.6169 28.1452 47.1809 28.5812C46.7449 29.0172 46.4999 29.6086 46.4999 30.2252V53.4752C46.4999 54.0918 46.7449 54.6832 47.1809 55.1192C47.6169 55.5552 48.2083 55.8002 48.8249 55.8002C49.4416 55.8002 50.0329 55.5552 50.469 55.1192C50.905 54.6832 51.1499 54.0918 51.1499 53.4752V30.2252Z" fill="#2E3192"/>
</svg>
