<svg width="60" height="48" viewBox="0 0 60 48" fill="none" xmlns="http://www.w3.org/2000/svg">
<path fill-rule="evenodd" clip-rule="evenodd" d="M6.66658 0.666504C5.11949 0.666504 3.63576 1.28109 2.5418 2.37505C1.44783 3.46901 0.833252 4.95274 0.833252 6.49984V41.4998C0.833252 43.0469 1.44783 44.5307 2.5418 45.6246C3.63576 46.7186 5.11949 47.3332 6.66658 47.3332H53.3332C54.8803 47.3332 56.3641 46.7186 57.458 45.6246C58.552 44.5307 59.1666 43.0469 59.1666 41.4998V6.49984C59.1666 4.95274 58.552 3.46901 57.458 2.37505C56.3641 1.28109 54.8803 0.666504 53.3332 0.666504H6.66658ZM35.8333 15.2498C35.8333 14.4763 36.1405 13.7344 36.6875 13.1874C37.2345 12.6405 37.9764 12.3332 38.7499 12.3332H47.4999C48.2735 12.3332 49.0153 12.6405 49.5623 13.1874C50.1093 13.7344 50.4166 14.4763 50.4166 15.2498C50.4166 16.0234 50.1093 16.7652 49.5623 17.3122C49.0153 17.8592 48.2735 18.1665 47.4999 18.1665H38.7499C37.9764 18.1665 37.2345 17.8592 36.6875 17.3122C36.1405 16.7652 35.8333 16.0234 35.8333 15.2498ZM35.8333 23.9998C35.8333 23.2263 36.1405 22.4844 36.6875 21.9374C37.2345 21.3905 37.9764 21.0832 38.7499 21.0832H47.4999C48.2735 21.0832 49.0153 21.3905 49.5623 21.9374C50.1093 22.4844 50.4166 23.2263 50.4166 23.9998C50.4166 24.7734 50.1093 25.5152 49.5623 26.0622C49.0153 26.6092 48.2735 26.9165 47.4999 26.9165H38.7499C37.9764 26.9165 37.2345 26.6092 36.6875 26.0622C36.1405 25.5152 35.8333 24.7734 35.8333 23.9998ZM35.8333 32.7498C35.8333 31.9763 36.1405 31.2344 36.6875 30.6874C37.2345 30.1405 37.9764 29.8332 38.7499 29.8332H47.4999C48.2735 29.8332 49.0153 30.1405 49.5623 30.6874C50.1093 31.2344 50.4166 31.9763 50.4166 32.7498C50.4166 33.5234 50.1093 34.2652 49.5623 34.8122C49.0153 35.3592 48.2735 35.6665 47.4999 35.6665H38.7499C37.9764 35.6665 37.2345 35.3592 36.6875 34.8122C36.1405 34.2652 35.8333 33.5234 35.8333 32.7498ZM12.4999 18.1665C12.4999 15.8459 13.4218 13.6203 15.0627 11.9793C16.7037 10.3384 18.9293 9.4165 21.2499 9.4165C23.5706 9.4165 25.7962 10.3384 27.4371 11.9793C29.078 13.6203 29.9999 15.8459 29.9999 18.1665C29.9999 20.4871 29.078 22.7127 27.4371 24.3537C25.7962 25.9946 23.5706 26.9165 21.2499 26.9165C18.9293 26.9165 16.7037 25.9946 15.0627 24.3537C13.4218 22.7127 12.4999 20.4871 12.4999 18.1665ZM18.1641 29.8332C16.3273 29.8325 14.5368 30.4099 13.0464 31.4836C11.5561 32.5573 10.4414 34.0727 9.86033 35.8153L9.732 36.2032L9.72033 36.2382C9.59783 36.6057 9.55992 36.7253 9.59784 36.8069C9.61534 36.8448 9.65617 36.874 9.70867 36.9207C9.802 36.9936 9.942 37.1073 10.1345 37.3727C10.4047 37.7474 10.7601 38.0525 11.1714 38.263C11.5826 38.4734 12.038 38.5832 12.4999 38.5832H29.9999C30.4619 38.5832 30.9172 38.4734 31.3285 38.263C31.7397 38.0525 32.0951 37.7474 32.3653 37.3727C32.4834 37.2012 32.627 37.0488 32.7912 36.9207C32.8466 36.874 32.8816 36.8448 32.902 36.804C32.9428 36.7253 32.902 36.6057 32.7795 36.2382L32.7678 36.2032L32.6395 35.8153C32.0586 34.0732 30.9444 32.5581 29.4546 31.4845C27.9648 30.4108 26.175 29.8331 24.3387 29.8332H18.1641Z" fill="#2E3192"/>
</svg>
