<svg width="80" height="80" viewBox="0 0 80 80" fill="none" xmlns="http://www.w3.org/2000/svg">
<path d="M13.3334 66.6663C11.5 66.6663 9.93113 66.0141 8.62669 64.7097C7.32224 63.4052 6.66891 61.8352 6.66669 59.9997V19.9997C6.66669 18.1663 7.32002 16.5975 8.62669 15.293C9.93335 13.9886 11.5022 13.3352 13.3334 13.333H66.6667C68.5 13.333 70.07 13.9863 71.3767 15.293C72.6833 16.5997 73.3356 18.1686 73.3334 19.9997V59.9997C73.3334 61.833 72.6811 63.403 71.3767 64.7097C70.0722 66.0163 68.5022 66.6686 66.6667 66.6663H13.3334ZM13.3334 26.6663H66.6667V19.9997H13.3334V26.6663ZM36.5 55.1663L55.3334 36.333L50.5 31.4997L36.5 45.4997L29.5 38.4997L24.6667 43.333L36.5 55.1663Z" fill="#2E3192"/>
</svg>
