<svg width="490" height="268" viewBox="0 0 490 268" fill="none" xmlns="http://www.w3.org/2000/svg">
<rect width="490" height="268" rx="10" fill="#D9D9D9"/>
<path d="M244.5 102C238.27 102 232.18 103.847 227 107.309C221.819 110.77 217.782 115.69 215.398 121.445C213.014 127.201 212.39 133.535 213.605 139.645C214.821 145.756 217.821 151.368 222.226 155.774C226.632 160.179 232.244 163.179 238.355 164.395C244.465 165.61 250.799 164.986 256.555 162.602C262.31 160.218 267.23 156.181 270.691 151C274.153 145.82 276 139.73 276 133.5C276 125.146 272.681 117.134 266.774 111.226C260.866 105.319 252.854 102 244.5 102ZM261.256 135.514L234.256 149.014C233.913 149.185 233.531 149.266 233.148 149.249C232.765 149.231 232.393 149.116 232.066 148.915C231.74 148.713 231.471 148.431 231.284 148.096C231.098 147.761 231 147.384 231 147V120C231 119.617 231.098 119.24 231.285 118.905C231.472 118.57 231.741 118.289 232.067 118.087C232.394 117.886 232.766 117.771 233.149 117.753C233.532 117.736 233.913 117.817 234.256 117.988L261.256 131.488C261.629 131.676 261.943 131.963 262.162 132.318C262.381 132.673 262.498 133.083 262.498 133.5C262.498 133.917 262.381 134.327 262.162 134.682C261.943 135.037 261.629 135.324 261.256 135.511" fill="white"/>
</svg>
